<svg width="89" height="89" viewBox="0 0 89 89" fill="none" xmlns="http://www.w3.org/2000/svg">
<g clip-path="url(#clip0_1330_14)">
<circle cx="44.8979" cy="44.8981" r="43" fill="#FFC700" stroke="black" stroke-width="2"/>
<path fill-rule="evenodd" clip-rule="evenodd" d="M5.3733 25.5409C9.40896 20.2399 15.9828 17.8857 23.0195 17.32C29.9475 16.7631 37.4609 17.9245 43.8099 19.8454C45.7048 17.702 47.4568 15.4829 49.156 13.0465C45.8538 10.5299 41.7969 8.70078 37.7343 7.70123C33.3991 6.63463 29.135 6.53111 25.8324 7.47471C25.3677 7.60747 24.8834 7.33842 24.7507 6.87376C24.6179 6.40911 24.887 5.92481 25.3516 5.79205C29.0311 4.74077 33.6193 4.88661 38.1524 6.00191C42.386 7.04353 46.6392 8.94691 50.1428 11.5984C51.6297 9.36535 53.091 6.93818 54.5884 4.2182C50.6399 2.02856 47.0467 1.77309 44.294 1.77307C43.8189 1.77307 43.4323 1.39442 43.4194 0.922436C43.9101 0.906236 44.4029 0.898071 44.8976 0.898071C47.8427 0.898071 50.7202 1.18742 53.5032 1.73922C54.3376 2.09667 55.1912 2.52735 56.0589 3.04595C57.7371 3.26462 59.3887 3.56112 61.0047 3.93956C64.9846 5.50593 68.6812 7.63563 71.9961 10.2305C67.3821 7.3852 62.0121 5.63571 56.2453 4.83672C54.5073 8.00809 52.8118 10.8014 51.0654 13.3606C49.0668 16.2893 47.005 18.9067 44.7411 21.4311C40.671 25.9696 35.9553 30.1987 29.8122 35.3801C31.6441 42.8343 33.6914 48.5753 36.2931 53.094C55.1944 29.6166 64.3438 18.6973 72.4809 10.6155C72.9373 10.9831 73.3861 11.3597 73.8272 11.7449C65.6888 19.8107 56.5355 30.7354 37.2621 54.681C39.5552 58.2201 42.2728 60.9568 45.6297 63.1658C57.2892 56.0558 67.0563 47.7649 73.5292 40.1615C76.8105 36.3072 79.2215 32.6571 80.6122 29.4517C82.0126 26.2236 82.3224 23.5791 81.6232 21.6428C81.5209 21.3595 81.5738 21.058 81.7382 20.8312C82.4495 21.9177 83.1139 23.0376 83.7288 24.188C83.6721 26.0242 83.1324 28.0396 82.2176 30.1482C80.7351 33.5652 78.2103 37.3625 74.8617 41.2959C68.3919 48.8957 58.7582 57.1073 47.3016 64.1928C51.4216 66.5554 56.4678 68.2885 62.8021 69.7753C68.4769 65.5773 72.8393 61.2185 76.7628 57.295C79.2377 54.5551 81.4936 51.8369 83.6931 48.8785C85.7633 46.0437 86.8842 43.8211 87.8005 41.1626C87.6514 36.7155 87.0314 32.7368 86.0119 29.1927C87.6965 33.6 88.6928 38.3475 88.8693 43.3039C88.0456 45.3431 87.0107 47.238 85.4442 49.4418C86.5787 51.4461 87.1788 53.9109 87.2648 56.8149C86.6677 58.9422 85.9146 61.0044 85.0187 62.9882C85.9137 57.7717 85.5972 53.8238 84.2821 51.0054C82.3863 53.4902 80.4375 55.8225 78.3401 58.1586C79.5544 64.5404 79.0081 71.0248 75.6571 76.3601C73.7976 78.1783 71.7776 79.833 69.6202 81.301C69.4307 80.9365 69.5196 80.4773 69.8534 80.2125C76.2944 75.1042 78.0278 67.5368 76.8298 59.7014C73.2107 63.3075 69.104 67.2816 63.9139 71.1296C64.4225 76.8452 63.5963 80.5235 60.5304 83.5595C59.0141 85.061 56.988 86.367 54.4235 87.7034C53.9949 87.9268 53.4665 87.7604 53.2431 87.3318C53.0198 86.9033 53.1862 86.3748 53.6147 86.1515C55.3081 85.2691 56.701 84.4299 57.8377 83.5707C45.22 81.7511 34.3139 74.2188 26.4093 64.8854C18.4271 55.4603 13.4098 44.0859 12.8006 34.6603C10.9002 35.3593 9.19718 36.614 7.56654 38.6409C5.44883 63.1863 25.0554 87.0358 49.9148 87.5232C50.3979 87.5327 50.7819 87.9321 50.7725 88.4152C50.7718 88.4473 50.7695 88.479 50.7655 88.5102C48.9039 88.7583 47.0055 88.89 45.0779 88.8977C22.3577 85.7786 5.10791 64.0881 5.67364 41.1879C4.39216 43.2869 3.44867 45.7997 2.74602 48.6103C2.62882 49.0791 2.15375 49.3642 1.68493 49.2469C1.36832 49.1678 1.13553 48.9254 1.05384 48.632C1.0446 48.5221 1.03577 48.412 1.02734 48.3019C1.03166 48.2633 1.03859 48.2246 1.04827 48.1859C2.0633 44.1257 3.60484 40.4815 6.04691 37.7404C8.20913 34.9856 10.587 33.3657 13.4051 32.6423C17.5008 31.591 22.3945 32.4784 28.6167 34.0991C34.3071 29.3012 38.7143 25.3707 42.5055 21.2851C36.4911 19.5547 29.537 18.5518 23.1597 19.0644C16.297 19.6161 10.2463 21.9064 6.64724 26.7586C6.35935 27.1468 5.81132 27.2281 5.42318 26.9402C5.1717 26.7536 5.04904 26.4579 5.07216 26.1672C5.17093 25.9575 5.27132 25.7488 5.3733 25.5409ZM45.1474 64.9374C49.6696 67.8013 55.2269 69.7809 62.1832 71.4274C62.6255 76.5987 61.8757 79.5894 59.5828 82.0251C46.8754 80.6858 35.7749 73.236 27.7448 63.7544C19.8292 54.408 14.9957 43.2035 14.5257 34.1835C17.9981 33.5116 22.2778 34.2601 28.1072 35.7748C30.1071 43.9188 32.3933 50.1816 35.4446 55.0832C38.0423 59.2561 41.1854 62.4282 45.1474 64.9374Z" fill="black"/>
</g>
<defs>
<clipPath id="clip0_1330_14">
<rect width="88" height="88" fill="white" transform="translate(0.897949 0.898071)"/>
</clipPath>
</defs>
</svg>
