<svg width="489" height="295" viewBox="0 0 489 295" fill="none" xmlns="http://www.w3.org/2000/svg">
<g clip-path="url(#clip0_2_122)">
<rect width="489" height="295" fill="#000068"/>
<path fill-rule="evenodd" clip-rule="evenodd" d="M635 29H24V93H136.009C136.003 92.6674 136 92.3341 136 92C136 62.7289 159.729 39 189 39C218.271 39 242 62.7289 242 92C242 92.3341 241.997 92.6674 241.991 93H276.009C276.003 92.6674 276 92.3341 276 92C276 62.7289 299.729 39 329 39C358.271 39 382 62.7289 382 92C382 92.3341 381.997 92.6674 381.991 93H416.009C416.003 92.6674 416 92.3341 416 92C416 62.7289 439.729 39 469 39C498.271 39 522 62.7289 522 92C522 92.3341 521.997 92.6674 521.991 93H635V29Z" fill="white"/>
<path fill-rule="evenodd" clip-rule="evenodd" d="M611 116H0V180H112.009C112.003 179.667 112 179.334 112 179C112 149.729 135.729 126 165 126C194.271 126 218 149.729 218 179C218 179.334 217.997 179.667 217.991 180H252.009C252.003 179.667 252 179.334 252 179C252 149.729 275.729 126 305 126C334.271 126 358 149.729 358 179C358 179.334 357.997 179.667 357.991 180H392.009C392.003 179.667 392 179.334 392 179C392 149.729 415.729 126 445 126C474.271 126 498 149.729 498 179C498 179.334 497.997 179.667 497.991 180H611V116Z" fill="white"/>
<path fill-rule="evenodd" clip-rule="evenodd" d="M587 206H-24V270H88.0092C88.0031 269.667 88 269.334 88 269C88 239.729 111.729 216 141 216C170.271 216 194 239.729 194 269C194 269.334 193.997 269.667 193.991 270H228.009C228.003 269.667 228 269.334 228 269C228 239.729 251.729 216 281 216C310.271 216 334 239.729 334 269C334 269.334 333.997 269.667 333.991 270H368.009C368.003 269.667 368 269.334 368 269C368 239.729 391.729 216 421 216C450.271 216 474 239.729 474 269C474 269.334 473.997 269.667 473.991 270H587V206Z" fill="white"/>
<rect x="-30.79" y="-98" width="181" height="423" transform="rotate(14.1225 -30.79 -98)" fill="#CC0000"/>
</g>
<defs>
<clipPath id="clip0_2_122">
<rect width="489" height="295" fill="white"/>
</clipPath>
</defs>
</svg>
