<svg width="119" height="134" viewBox="0 0 119 134" fill="none" xmlns="http://www.w3.org/2000/svg">
<path d="M7.40967 9.8916L6.91475 8.4756L6.23415 8.71348L5.99477 9.39355L7.40967 9.8916ZM7.40967 9.8916C6.91475 8.4756 6.91525 8.47543 6.91582 8.47523L6.91728 8.47472L6.92139 8.47329L6.93433 8.46882L6.9791 8.45356C7.01735 8.44061 7.0724 8.42219 7.14427 8.39867C7.288 8.35161 7.49899 8.28413 7.77736 8.19915C8.33412 8.02919 9.16038 7.78924 10.2571 7.50279C12.4507 6.92987 15.7259 6.17094 20.0907 5.41368C28.8205 3.8991 41.9063 2.3916 59.4097 2.3916C76.9131 2.3916 89.9988 3.8991 98.7287 5.41368C103.093 6.17094 106.369 6.92987 108.562 7.50279C109.659 7.78924 110.485 8.02919 111.042 8.19915C111.32 8.28413 111.531 8.35161 111.675 8.39867C111.747 8.42219 111.802 8.44061 111.84 8.45356L111.885 8.46882L111.898 8.47329L111.902 8.47472L111.904 8.47523C111.904 8.47543 111.905 8.4756 111.41 9.8916M7.40967 9.8916C5.99477 9.39355 5.9946 9.39402 5.99442 9.39454L5.99398 9.3958L5.99283 9.39908L5.98945 9.40879L5.97849 9.4407C5.96934 9.46754 5.95654 9.5055 5.94034 9.55457C5.90794 9.65271 5.86195 9.79531 5.80431 9.98235C5.68904 10.3564 5.5272 10.9082 5.33445 11.6376C4.94895 13.0963 4.43988 15.2651 3.93246 18.1424C2.91756 23.8973 1.90967 32.4845 1.90967 43.8916C1.90967 74.4116 15.1565 96.5143 28.8679 110.959C35.7198 118.178 42.6964 123.495 48.218 127.013C50.9783 128.772 53.3868 130.09 55.2468 130.973C56.1752 131.414 56.9825 131.754 57.6387 131.988C58.2275 132.197 58.8798 132.392 59.4097 132.392C59.9395 132.392 60.5919 132.197 61.1806 131.988C61.8369 131.754 62.6441 131.414 63.5725 130.973C65.4326 130.09 67.841 128.772 70.6014 127.013C76.123 123.495 83.0995 118.178 89.9514 110.959C103.663 96.5143 116.91 74.4116 116.91 43.8916C116.91 32.4845 115.902 23.8973 114.887 18.1424C114.379 15.2651 113.87 13.0963 113.485 11.6376C113.292 10.9082 113.13 10.3564 113.015 9.98235C112.957 9.79531 112.911 9.65271 112.879 9.55457C112.863 9.5055 112.85 9.46754 112.841 9.4407L112.83 9.40879L112.827 9.39908L112.825 9.3958L112.825 9.39454C112.825 9.39402 112.825 9.39355 111.41 9.8916M111.41 9.8916L111.905 8.4756L112.585 8.71348L112.825 9.39355L111.41 9.8916Z" fill="black" stroke="white" stroke-width="3"/>
<path d="M17.1002 44V14.6H28.2722C30.8482 14.6 33.0462 15.013 34.8662 15.839C36.6862 16.665 38.1702 17.785 39.3182 19.199C40.4662 20.599 41.3062 22.174 41.8382 23.924C42.3702 25.674 42.6362 27.466 42.6362 29.3C42.6362 30.966 42.3772 32.66 41.8592 34.382C41.3552 36.104 40.5362 37.693 39.4022 39.149C38.2822 40.605 36.7912 41.781 34.9292 42.677C33.0812 43.559 30.8062 44 28.1042 44H17.1002ZM23.7362 37.658H28.7342C30.0082 37.658 31.0862 37.413 31.9682 36.923C32.8642 36.419 33.5852 35.754 34.1312 34.928C34.6912 34.102 35.0972 33.199 35.3492 32.219C35.6152 31.239 35.7482 30.266 35.7482 29.3C35.7482 28.292 35.6152 27.291 35.3492 26.297C35.0972 25.303 34.7052 24.4 34.1732 23.588C33.6412 22.776 32.9622 22.125 32.1362 21.635C31.3102 21.145 30.3302 20.9 29.1962 20.9H23.7362V37.658ZM57.9458 44.504C56.0278 44.504 54.2778 44.154 52.6958 43.454C51.1278 42.754 49.7698 41.753 48.6218 40.451C47.4878 39.135 46.6198 37.56 46.0178 35.726L51.9398 33.5C52.5978 34.886 53.4658 36.027 54.5438 36.923C55.6218 37.805 56.8118 38.246 58.1138 38.246C59.4158 38.246 60.4588 38.008 61.2428 37.532C62.0408 37.042 62.4398 36.328 62.4398 35.39C62.4398 34.774 62.2088 34.263 61.7468 33.857C61.2988 33.451 60.6618 33.094 59.8358 32.786C59.0238 32.464 58.0718 32.128 56.9798 31.778C55.8738 31.414 54.7468 31.015 53.5988 30.581C52.4508 30.147 51.3938 29.601 50.4278 28.943C49.4758 28.271 48.7058 27.417 48.1178 26.381C47.5298 25.345 47.2358 24.05 47.2358 22.496C47.2358 20.97 47.6418 19.57 48.4538 18.296C49.2658 17.022 50.4418 16.007 51.9818 15.251C53.5358 14.481 55.4118 14.096 57.6098 14.096C59.4298 14.096 61.0468 14.432 62.4608 15.104C63.8748 15.762 65.0438 16.658 65.9678 17.792C66.9058 18.926 67.5638 20.2 67.9418 21.614L62.0618 23.546C61.6418 22.636 61.0678 21.88 60.3398 21.278C59.6258 20.662 58.6038 20.354 57.2738 20.354C56.1678 20.354 55.3138 20.55 54.7118 20.942C54.1238 21.32 53.8298 21.88 53.8298 22.622C53.8298 23.07 54.0328 23.462 54.4388 23.798C54.8448 24.12 55.4118 24.421 56.1398 24.701C56.8678 24.981 57.7218 25.282 58.7018 25.604C59.9478 26.01 61.1798 26.458 62.3978 26.948C63.6298 27.438 64.7428 28.04 65.7368 28.754C66.7448 29.468 67.5428 30.364 68.1308 31.442C68.7328 32.52 69.0338 33.85 69.0338 35.432C69.0338 37.35 68.5368 38.988 67.5428 40.346C66.5628 41.69 65.2328 42.719 63.5528 43.433C61.8868 44.147 60.0178 44.504 57.9458 44.504ZM87.8938 44.504L80.6698 29.594C80.6558 29.552 80.6348 29.496 80.6068 29.426C80.5788 29.342 80.5438 29.23 80.5018 29.09C80.5018 29.216 80.5018 29.328 80.5018 29.426C80.5018 29.524 80.5018 29.594 80.5018 29.636V44H73.8658V14.6H80.6278L87.3478 29.216C87.5018 29.524 87.6348 29.818 87.7468 30.098C87.8588 30.364 87.9638 30.658 88.0618 30.98C88.1738 30.658 88.2788 30.35 88.3768 30.056C88.4888 29.762 88.6078 29.482 88.7338 29.216L95.7058 14.6H101.88V44H95.2438V29.594C95.2438 29.51 95.2438 29.419 95.2438 29.321C95.2438 29.223 95.2438 29.146 95.2438 29.09C95.2018 29.174 95.1598 29.258 95.1178 29.342C95.0898 29.412 95.0618 29.468 95.0338 29.51L87.8938 44.504Z" fill="#CC0000"/>
<path d="M18.2486 69L18.1786 59.2H19.3686V65.836V66.522C19.3686 66.5127 19.3826 66.4707 19.4106 66.396C19.4479 66.3213 19.4899 66.2327 19.5366 66.13C19.5832 66.018 19.6206 65.9247 19.6486 65.85L22.5746 59.2H23.5406L24.1426 65.92L24.1846 66.55C24.1846 66.5313 24.2126 66.4427 24.2686 66.284C24.3339 66.1253 24.3759 66.0133 24.3946 65.948L26.8306 59.2H28.1186L24.4786 69H23.3866L22.7146 62.224L22.6726 61.664C22.6446 61.7573 22.5699 61.9393 22.4486 62.21L19.3266 69H18.2486ZM27.7936 69L32.8616 59.2H33.9116L35.5636 69H34.3596L33.9676 66.592H30.2996L29.0676 69H27.7936ZM30.8456 65.514H33.7996L33.2116 61.888C33.2023 61.8227 33.1789 61.6827 33.1416 61.468C33.1136 61.244 33.0949 61.0993 33.0856 61.034C32.9549 61.342 32.8243 61.622 32.6936 61.874L30.8456 65.514ZM41.8 60.32L40.274 69H39.056L40.582 60.32H38.006L38.188 59.2H44.572L44.39 60.32H41.8ZM45.5326 69L47.2546 59.2H52.8966L52.7146 60.306H48.2766L47.7446 63.372H50.6286L50.4186 64.478H47.5486L46.9466 67.894H51.6786L51.4826 69H45.5326ZM62.2097 61.762C62.2097 62.4807 61.9857 63.12 61.5377 63.68C61.0897 64.24 60.413 64.5853 59.5077 64.716L60.9217 69H59.6477L58.2757 64.772H56.2317L55.4897 69H54.2717L55.9937 59.2H59.3817C60.3617 59.2 61.0757 59.4567 61.5237 59.97C61.981 60.474 62.2097 61.0713 62.2097 61.762ZM58.8637 63.666C59.629 63.666 60.1797 63.484 60.5157 63.12C60.8517 62.7467 61.0197 62.308 61.0197 61.804C61.0197 61.384 60.8843 61.0293 60.6137 60.74C60.3523 60.4507 59.9277 60.306 59.3397 60.306H57.0157L56.4277 63.666H58.8637ZM67.6619 69L69.3839 59.2H72.9539C73.8499 59.2 74.5126 59.4473 74.9419 59.942C75.3712 60.4273 75.5859 61.006 75.5859 61.678C75.5859 62.5927 75.2872 63.3813 74.6899 64.044C74.1019 64.7067 73.2386 65.038 72.0999 65.038H69.5799L68.8799 69H67.6619ZM72.2399 63.974C72.9586 63.974 73.4952 63.75 73.8499 63.302C74.2139 62.854 74.3959 62.3453 74.3959 61.776C74.3959 61.3747 74.2792 61.0247 74.0459 60.726C73.8126 60.418 73.4252 60.264 72.8839 60.264H70.4059L69.7619 63.974H72.2399ZM80.2207 69.168C79.082 69.168 78.2327 68.79 77.6727 68.034C77.122 67.2687 76.8467 66.3167 76.8467 65.178C76.8467 64.5993 76.9073 64.0207 77.0287 63.442C77.15 62.8633 77.3413 62.308 77.6027 61.776C77.8733 61.244 78.1907 60.7773 78.5547 60.376C78.928 59.9653 79.3807 59.6387 79.9127 59.396C80.454 59.1533 81.0373 59.032 81.6627 59.032C82.2413 59.032 82.75 59.144 83.1887 59.368C83.6273 59.592 83.9773 59.8953 84.2387 60.278C84.5 60.6607 84.6913 61.0807 84.8127 61.538C84.9433 61.9953 85.0087 62.4807 85.0087 62.994C85.0087 63.7313 84.906 64.4593 84.7007 65.178C84.4953 65.8967 84.2013 66.5593 83.8187 67.166C83.436 67.7633 82.932 68.2487 82.3067 68.622C81.6813 68.986 80.986 69.168 80.2207 69.168ZM80.2207 68.048C80.79 68.048 81.308 67.8987 81.7747 67.6C82.2507 67.292 82.6287 66.8907 82.9087 66.396C83.198 65.9013 83.4173 65.3647 83.5667 64.786C83.7253 64.198 83.8047 63.6007 83.8047 62.994C83.8047 62.21 83.6227 61.5427 83.2587 60.992C82.904 60.432 82.3627 60.152 81.6347 60.152C81.056 60.152 80.5287 60.306 80.0527 60.614C79.586 60.922 79.208 61.3233 78.9187 61.818C78.6387 62.3127 78.424 62.8493 78.2747 63.428C78.1253 64.0067 78.0507 64.59 78.0507 65.178C78.0507 65.9993 78.228 66.6853 78.5827 67.236C78.9373 67.7773 79.4833 68.048 80.2207 68.048ZM86.8763 69L88.5983 59.2H89.8163L88.3043 67.852H92.9103L92.7003 69H86.8763ZM98.4918 69.168C97.3531 69.168 96.5038 68.79 95.9438 68.034C95.3931 67.2687 95.1178 66.3167 95.1178 65.178C95.1178 64.5993 95.1784 64.0207 95.2998 63.442C95.4211 62.8633 95.6124 62.308 95.8738 61.776C96.1444 61.244 96.4618 60.7773 96.8258 60.376C97.1991 59.9653 97.6518 59.6387 98.1838 59.396C98.7251 59.1533 99.3084 59.032 99.9338 59.032C100.512 59.032 101.021 59.144 101.46 59.368C101.898 59.592 102.248 59.8953 102.51 60.278C102.771 60.6607 102.962 61.0807 103.084 61.538C103.214 61.9953 103.28 62.4807 103.28 62.994C103.28 63.7313 103.177 64.4593 102.972 65.178C102.766 65.8967 102.472 66.5593 102.09 67.166C101.707 67.7633 101.203 68.2487 100.578 68.622C99.9524 68.986 99.2571 69.168 98.4918 69.168ZM98.4918 68.048C99.0611 68.048 99.5791 67.8987 100.046 67.6C100.522 67.292 100.9 66.8907 101.18 66.396C101.469 65.9013 101.688 65.3647 101.838 64.786C101.996 64.198 102.076 63.6007 102.076 62.994C102.076 62.21 101.894 61.5427 101.53 60.992C101.175 60.432 100.634 60.152 99.9058 60.152C99.3271 60.152 98.7998 60.306 98.3238 60.614C97.8571 60.922 97.4791 61.3233 97.1898 61.818C96.9098 62.3127 96.6951 62.8493 96.5458 63.428C96.3964 64.0067 96.3218 64.59 96.3218 65.178C96.3218 65.9993 96.4991 66.6853 96.8538 67.236C97.2084 67.7773 97.7544 68.048 98.4918 68.048Z" fill="white"/>
<mask id="mask0_1315_139" style="mask-type:alpha" maskUnits="userSpaceOnUse" x="40" y="76" width="39" height="39">
<circle cx="59.4097" cy="95.8916" r="19" fill="black"/>
</mask>
<g mask="url(#mask0_1315_139)">
<rect x="37.9839" y="73.6577" width="43.2553" height="43.6596" fill="#FFC700"/>
<path d="M59.4096 95.8914C57.6597 97.8472 55.805 102.319 55.367 106.451M59.4096 95.8914C58.5908 93.3981 55.6454 89.556 52.2862 87.1108M59.4096 95.8914C61.9782 96.429 66.7784 95.7992 70.5755 94.1127M55.367 106.451C67.6968 105.796 79.3139 99.0405 78.9097 94.3916M55.367 106.451C55.1836 108.181 55.2487 109.852 55.6741 111.253M55.6741 111.253C56.2274 113.076 57.3906 114.943 59.4096 115.392M55.6741 111.253C61.2287 113.072 72.2714 112.003 75.9097 106.392M52.2862 87.1108C46.6886 98.1163 46.6816 111.417 50.9098 113.392M52.2862 87.1108C50.8793 86.0868 49.3999 85.3078 47.9737 84.9755M47.9737 84.9755C46.1183 84.5433 43.8076 84.3674 42.4096 85.8916M47.9737 84.9755C43.6209 88.8765 38.8696 98.4353 41.9096 104.392M70.5755 94.1127C63.8433 83.7623 52.2336 76.717 48.4096 79.3916M70.5755 94.1127C72.1658 93.4063 73.5802 92.5146 74.581 91.4456M74.581 91.4456C75.883 90.0549 77.0307 88.3644 76.4098 86.3916M74.581 91.4456C73.3791 85.7255 67.088 76.737 60.4097 76.3916" stroke="black" stroke-linecap="round"/>
</g>
</svg>
