<svg width="118" height="133" viewBox="0 0 118 133" fill="none" xmlns="http://www.w3.org/2000/svg">
<path d="M7 9L6.50508 7.584L5.82449 7.82188L5.5851 8.50195L7 9ZM7 9C6.50508 7.584 6.50558 7.58383 6.50615 7.58363L6.50761 7.58312L6.51172 7.58169L6.52466 7.57722L6.56944 7.56196C6.60768 7.54901 6.66273 7.53059 6.7346 7.50707C6.87833 7.46001 7.08932 7.39253 7.3677 7.30755C7.92445 7.13759 8.75071 6.89764 9.84746 6.61119C12.041 6.03826 15.3163 5.27934 19.681 4.52208C28.4108 3.0075 41.4966 1.5 59 1.5C76.5034 1.5 89.5892 3.0075 98.319 4.52208C102.684 5.27934 105.959 6.03826 108.153 6.61119C109.249 6.89764 110.076 7.13759 110.632 7.30755C110.911 7.39253 111.122 7.46001 111.265 7.50707C111.337 7.53059 111.392 7.54901 111.431 7.56196L111.475 7.57722L111.488 7.58169L111.492 7.58312L111.494 7.58363C111.494 7.58383 111.495 7.584 111 9M7 9C5.5851 8.50195 5.58493 8.50242 5.58475 8.50294L5.58431 8.50419L5.58316 8.50748L5.57978 8.51719L5.56882 8.5491C5.55967 8.57594 5.54687 8.6139 5.53067 8.66297C5.49828 8.76111 5.45228 8.90371 5.39464 9.09075C5.27937 9.46483 5.11753 10.0166 4.92478 10.746C4.53929 12.2047 4.03021 14.3735 3.5228 17.2508C2.50789 23.0057 1.5 31.5929 1.5 43C1.5 73.52 14.7469 95.6227 28.4582 110.067C35.3102 117.286 42.2867 122.603 47.8083 126.122C50.5687 127.881 52.9771 129.198 54.8371 130.081C55.7656 130.522 56.5728 130.863 57.2291 131.096C57.8178 131.306 58.4701 131.5 59 131.5C59.5299 131.5 60.1822 131.306 60.7709 131.096C61.4272 130.863 62.2344 130.522 63.1629 130.081C65.0229 129.198 67.4313 127.881 70.1917 126.122C75.7133 122.603 82.6898 117.286 89.5418 110.067C103.253 95.6227 116.5 73.52 116.5 43C116.5 31.5929 115.492 23.0057 114.477 17.2508C113.97 14.3735 113.461 12.2047 113.075 10.746C112.882 10.0166 112.721 9.46483 112.605 9.09075C112.548 8.90371 112.502 8.76111 112.469 8.66297C112.453 8.6139 112.44 8.57594 112.431 8.5491L112.42 8.51719L112.417 8.50748L112.416 8.50419L112.415 8.50294C112.415 8.50242 112.415 8.50195 111 9M111 9L111.495 7.584L112.176 7.82188L112.415 8.50195L111 9Z" fill="black" stroke="white" stroke-width="3"/>
<path d="M16.6905 47.1084V17.7084H27.8625C30.4385 17.7084 32.6365 18.1214 34.4565 18.9474C36.2765 19.7734 37.7605 20.8934 38.9085 22.3074C40.0565 23.7074 40.8965 25.2824 41.4285 27.0324C41.9605 28.7824 42.2265 30.5744 42.2265 32.4084C42.2265 34.0744 41.9675 35.7684 41.4495 37.4904C40.9455 39.2124 40.1265 40.8014 38.9925 42.2574C37.8725 43.7134 36.3815 44.8894 34.5195 45.7854C32.6715 46.6674 30.3965 47.1084 27.6945 47.1084H16.6905ZM23.3265 40.7664H28.3245C29.5985 40.7664 30.6765 40.5214 31.5585 40.0314C32.4545 39.5274 33.1755 38.8624 33.7215 38.0364C34.2815 37.2104 34.6875 36.3074 34.9395 35.3274C35.2055 34.3474 35.3385 33.3744 35.3385 32.4084C35.3385 31.4004 35.2055 30.3994 34.9395 29.4054C34.6875 28.4114 34.2955 27.5084 33.7635 26.6964C33.2315 25.8844 32.5525 25.2334 31.7265 24.7434C30.9005 24.2534 29.9205 24.0084 28.7865 24.0084H23.3265V40.7664ZM57.5362 47.6124C55.6182 47.6124 53.8682 47.2624 52.2862 46.5624C50.7182 45.8624 49.3602 44.8614 48.2122 43.5594C47.0782 42.2434 46.2102 40.6684 45.6082 38.8344L51.5302 36.6084C52.1882 37.9944 53.0562 39.1354 54.1342 40.0314C55.2122 40.9134 56.4022 41.3544 57.7042 41.3544C59.0062 41.3544 60.0492 41.1164 60.8332 40.6404C61.6312 40.1504 62.0302 39.4364 62.0302 38.4984C62.0302 37.8824 61.7992 37.3714 61.3372 36.9654C60.8892 36.5594 60.2522 36.2024 59.4262 35.8944C58.6142 35.5724 57.6622 35.2364 56.5702 34.8864C55.4642 34.5224 54.3372 34.1234 53.1892 33.6894C52.0412 33.2554 50.9842 32.7094 50.0182 32.0514C49.0662 31.3794 48.2962 30.5254 47.7082 29.4894C47.1202 28.4534 46.8262 27.1584 46.8262 25.6044C46.8262 24.0784 47.2322 22.6784 48.0442 21.4044C48.8562 20.1304 50.0322 19.1154 51.5722 18.3594C53.1262 17.5894 55.0022 17.2044 57.2002 17.2044C59.0202 17.2044 60.6372 17.5404 62.0512 18.2124C63.4652 18.8704 64.6342 19.7664 65.5582 20.9004C66.4962 22.0344 67.1542 23.3084 67.5322 24.7224L61.6522 26.6544C61.2322 25.7444 60.6582 24.9884 59.9302 24.3864C59.2162 23.7704 58.1942 23.4624 56.8642 23.4624C55.7582 23.4624 54.9042 23.6584 54.3022 24.0504C53.7142 24.4284 53.4202 24.9884 53.4202 25.7304C53.4202 26.1784 53.6232 26.5704 54.0292 26.9064C54.4352 27.2284 55.0022 27.5294 55.7302 27.8094C56.4582 28.0894 57.3122 28.3904 58.2922 28.7124C59.5382 29.1184 60.7702 29.5664 61.9882 30.0564C63.2202 30.5464 64.3332 31.1484 65.3272 31.8624C66.3352 32.5764 67.1332 33.4724 67.7212 34.5504C68.3232 35.6284 68.6242 36.9584 68.6242 38.5404C68.6242 40.4584 68.1272 42.0964 67.1332 43.4544C66.1532 44.7984 64.8232 45.8274 63.1432 46.5414C61.4772 47.2554 59.6082 47.6124 57.5362 47.6124ZM87.4841 47.6124L80.2601 32.7024C80.2461 32.6604 80.2251 32.6044 80.1971 32.5344C80.1691 32.4504 80.1341 32.3384 80.0921 32.1984C80.0921 32.3244 80.0921 32.4364 80.0921 32.5344C80.0921 32.6324 80.0921 32.7024 80.0921 32.7444V47.1084H73.4561V17.7084H80.2181L86.9381 32.3244C87.0921 32.6324 87.2251 32.9264 87.3371 33.2064C87.4491 33.4724 87.5541 33.7664 87.6521 34.0884C87.7641 33.7664 87.8691 33.4584 87.9671 33.1644C88.0791 32.8704 88.1981 32.5904 88.3241 32.3244L95.2961 17.7084H101.47V47.1084H94.8341V32.7024C94.8341 32.6184 94.8341 32.5274 94.8341 32.4294C94.8341 32.3314 94.8341 32.2544 94.8341 32.1984C94.7921 32.2824 94.7501 32.3664 94.7081 32.4504C94.6801 32.5204 94.6521 32.5764 94.6241 32.6184L87.4841 47.6124Z" fill="#CC0000"/>
<path d="M17.8389 67.1084L17.7689 57.3084H18.9589V63.9444V64.6304C18.9589 64.6211 18.9729 64.5791 19.0009 64.5044C19.0382 64.4297 19.0802 64.3411 19.1269 64.2384C19.1736 64.1264 19.2109 64.0331 19.2389 63.9584L22.1649 57.3084H23.1309L23.7329 64.0284L23.7749 64.6584C23.7749 64.6397 23.8029 64.5511 23.8589 64.3924C23.9242 64.2337 23.9662 64.1217 23.9849 64.0564L26.4209 57.3084H27.7089L24.0689 67.1084H22.9769L22.3049 60.3324L22.2629 59.7724C22.2349 59.8657 22.1602 60.0477 22.0389 60.3184L18.9169 67.1084H17.8389ZM27.3839 67.1084L32.4519 57.3084H33.5019L35.1539 67.1084H33.9499L33.5579 64.7004H29.8899L28.6579 67.1084H27.3839ZM30.4359 63.6224H33.3899L32.8019 59.9964C32.7926 59.9311 32.7693 59.7911 32.7319 59.5764C32.7039 59.3524 32.6853 59.2077 32.6759 59.1424C32.5453 59.4504 32.4146 59.7304 32.2839 59.9824L30.4359 63.6224ZM41.3903 58.4284L39.8643 67.1084H38.6463L40.1723 58.4284H37.5963L37.7783 57.3084H44.1623L43.9803 58.4284H41.3903ZM45.1229 67.1084L46.8449 57.3084H52.4869L52.3049 58.4144H47.8669L47.3349 61.4804H50.2189L50.0089 62.5864H47.1389L46.5369 66.0024H51.2689L51.0729 67.1084H45.1229ZM61.8 59.8704C61.8 60.5891 61.576 61.2284 61.128 61.7884C60.68 62.3484 60.0033 62.6937 59.098 62.8244L60.512 67.1084H59.238L57.866 62.8804H55.822L55.08 67.1084H53.862L55.584 57.3084H58.972C59.952 57.3084 60.666 57.5651 61.114 58.0784C61.5713 58.5824 61.8 59.1797 61.8 59.8704ZM58.454 61.7744C59.2193 61.7744 59.77 61.5924 60.106 61.2284C60.442 60.8551 60.61 60.4164 60.61 59.9124C60.61 59.4924 60.4747 59.1377 60.204 58.8484C59.9427 58.5591 59.518 58.4144 58.93 58.4144H56.606L56.018 61.7744H58.454ZM67.2522 67.1084L68.9742 57.3084H72.5442C73.4402 57.3084 74.1029 57.5557 74.5322 58.0504C74.9616 58.5357 75.1762 59.1144 75.1762 59.7864C75.1762 60.7011 74.8776 61.4897 74.2802 62.1524C73.6922 62.8151 72.8289 63.1464 71.6902 63.1464H69.1702L68.4702 67.1084H67.2522ZM71.8302 62.0824C72.5489 62.0824 73.0856 61.8584 73.4402 61.4104C73.8042 60.9624 73.9862 60.4537 73.9862 59.8844C73.9862 59.4831 73.8696 59.1331 73.6362 58.8344C73.4029 58.5264 73.0156 58.3724 72.4742 58.3724H69.9962L69.3522 62.0824H71.8302ZM79.811 67.2764C78.6723 67.2764 77.823 66.8984 77.263 66.1424C76.7123 65.3771 76.437 64.4251 76.437 63.2864C76.437 62.7077 76.4977 62.1291 76.619 61.5504C76.7403 60.9717 76.9317 60.4164 77.193 59.8844C77.4637 59.3524 77.781 58.8857 78.145 58.4844C78.5183 58.0737 78.971 57.7471 79.503 57.5044C80.0443 57.2617 80.6277 57.1404 81.253 57.1404C81.8317 57.1404 82.3403 57.2524 82.779 57.4764C83.2177 57.7004 83.5677 58.0037 83.829 58.3864C84.0903 58.7691 84.2817 59.1891 84.403 59.6464C84.5337 60.1037 84.599 60.5891 84.599 61.1024C84.599 61.8397 84.4963 62.5677 84.291 63.2864C84.0857 64.0051 83.7917 64.6677 83.409 65.2744C83.0263 65.8717 82.5223 66.3571 81.897 66.7304C81.2717 67.0944 80.5763 67.2764 79.811 67.2764ZM79.811 66.1564C80.3803 66.1564 80.8983 66.0071 81.365 65.7084C81.841 65.4004 82.219 64.9991 82.499 64.5044C82.7883 64.0097 83.0077 63.4731 83.157 62.8944C83.3157 62.3064 83.395 61.7091 83.395 61.1024C83.395 60.3184 83.213 59.6511 82.849 59.1004C82.4943 58.5404 81.953 58.2604 81.225 58.2604C80.6463 58.2604 80.119 58.4144 79.643 58.7224C79.1763 59.0304 78.7983 59.4317 78.509 59.9264C78.229 60.4211 78.0143 60.9577 77.865 61.5364C77.7157 62.1151 77.641 62.6984 77.641 63.2864C77.641 64.1077 77.8183 64.7937 78.173 65.3444C78.5277 65.8857 79.0737 66.1564 79.811 66.1564ZM86.4667 67.1084L88.1887 57.3084H89.4067L87.8947 65.9604H92.5007L92.2907 67.1084H86.4667ZM98.0821 67.2764C96.9434 67.2764 96.0941 66.8984 95.5341 66.1424C94.9834 65.3771 94.7081 64.4251 94.7081 63.2864C94.7081 62.7077 94.7688 62.1291 94.8901 61.5504C95.0114 60.9717 95.2028 60.4164 95.4641 59.8844C95.7348 59.3524 96.0521 58.8857 96.4161 58.4844C96.7894 58.0737 97.2421 57.7471 97.7741 57.5044C98.3154 57.2617 98.8988 57.1404 99.5241 57.1404C100.103 57.1404 100.611 57.2524 101.05 57.4764C101.489 57.7004 101.839 58.0037 102.1 58.3864C102.361 58.7691 102.553 59.1891 102.674 59.6464C102.805 60.1037 102.87 60.5891 102.87 61.1024C102.87 61.8397 102.767 62.5677 102.562 63.2864C102.357 64.0051 102.063 64.6677 101.68 65.2744C101.297 65.8717 100.793 66.3571 100.168 66.7304C99.5428 67.0944 98.8474 67.2764 98.0821 67.2764ZM98.0821 66.1564C98.6514 66.1564 99.1694 66.0071 99.6361 65.7084C100.112 65.4004 100.49 64.9991 100.77 64.5044C101.059 64.0097 101.279 63.4731 101.428 62.8944C101.587 62.3064 101.666 61.7091 101.666 61.1024C101.666 60.3184 101.484 59.6511 101.12 59.1004C100.765 58.5404 100.224 58.2604 99.4961 58.2604C98.9174 58.2604 98.3901 58.4144 97.9141 58.7224C97.4474 59.0304 97.0694 59.4317 96.7801 59.9264C96.5001 60.4211 96.2854 60.9577 96.1361 61.5364C95.9868 62.1151 95.9121 62.6984 95.9121 63.2864C95.9121 64.1077 96.0894 64.7937 96.4441 65.3444C96.7988 65.8857 97.3448 66.1564 98.0821 66.1564Z" fill="white"/>
<mask id="mask0_2_145" style="mask-type:alpha" maskUnits="userSpaceOnUse" x="40" y="76" width="38" height="38">
<circle cx="59" cy="95" r="19" fill="black"/>
</mask>
<g mask="url(#mask0_2_145)">
<rect x="37.5744" y="72.7661" width="43.2553" height="43.6596" fill="#FFC700"/>
<path d="M58.9999 94.9998C57.25 96.9556 55.3953 101.427 54.9573 105.559M58.9999 94.9998C58.1811 92.5065 55.2357 88.6644 51.8765 86.2193M58.9999 94.9998C61.5685 95.5374 66.3687 94.9077 70.1658 93.2211M54.9573 105.559C67.2871 104.904 78.9042 98.149 78.5 93.5M54.9573 105.559C54.7739 107.29 54.839 108.96 55.2644 110.362M55.2644 110.362C55.8178 112.184 56.9809 114.051 58.9999 114.5M55.2644 110.362C60.819 112.181 71.8617 111.111 75.5 105.5M51.8765 86.2193C46.2789 97.2247 46.2719 110.526 50.5001 112.5M51.8765 86.2193C50.4696 85.1952 48.9902 84.4162 47.564 84.084M47.564 84.084C45.7086 83.6518 43.398 83.4759 41.9999 85M47.564 84.084C43.2112 87.9849 38.4599 97.5437 41.4999 103.5M70.1658 93.2211C63.4336 82.8707 51.8239 75.8255 47.9999 78.5M70.1658 93.2211C71.7561 92.5147 73.1705 91.623 74.1713 90.554M74.1713 90.554C75.4733 89.1633 76.6211 87.4728 76.0001 85.5M74.1713 90.554C72.9694 84.8339 66.6783 75.8454 60 75.5" stroke="black" stroke-linecap="round"/>
</g>
</svg>
