<svg width="88" height="88" viewBox="0 0 88 88" fill="none" xmlns="http://www.w3.org/2000/svg">
<g clip-path="url(#clip0_2_113)">
<circle cx="44" cy="44" r="43" fill="#FFC700" stroke="black" stroke-width="2"/>
<path fill-rule="evenodd" clip-rule="evenodd" d="M4.47558 24.6429C8.51124 19.3419 15.0851 16.9876 22.1218 16.422C29.0497 15.8651 36.5632 17.0264 42.9121 18.9474C44.807 16.804 46.5591 14.5848 48.2583 12.1485C44.9561 9.63179 40.8992 7.80271 36.8366 6.80316C32.5014 5.73656 28.2373 5.63304 24.9347 6.57664C24.47 6.7094 23.9857 6.44035 23.853 5.97569C23.7202 5.51104 23.9892 5.02674 24.4539 4.89398C28.1334 3.8427 32.7216 3.98854 37.2547 5.10384C41.4883 6.14546 45.7415 8.04884 49.245 10.7004C50.732 8.46728 52.1933 6.04011 53.6907 3.32013C49.7422 1.13049 46.1489 0.875017 43.3963 0.875C42.9212 0.874997 42.5346 0.496346 42.5217 0.0243651C43.0124 0.00816435 43.5052 0 43.9999 0C46.945 0 49.8225 0.289344 52.6055 0.841152C53.4399 1.1986 54.2935 1.62928 55.1612 2.14788C56.8394 2.36654 58.491 2.66305 60.107 3.04149C64.0869 4.60786 67.7835 6.73756 71.0984 9.33239C66.4844 6.48713 61.1144 4.73764 55.3475 3.93865C53.6096 7.11002 51.914 9.90329 50.1677 12.4625C48.1691 15.3913 46.1073 18.0086 43.8434 20.5331C39.7733 25.0716 35.0576 29.3007 28.9145 34.482C30.7463 41.9362 32.7937 47.6772 35.3954 52.1959C54.2967 28.7185 63.4461 17.7992 71.5832 9.7174C72.0396 10.085 72.4884 10.4616 72.9295 10.8468C64.7911 18.9127 55.6377 29.8373 36.3644 53.7829C38.6574 57.3221 41.3751 60.0588 44.732 62.2678C56.3914 55.1577 66.1586 46.8669 72.6315 39.2635C75.9128 35.4091 78.3238 31.7591 79.7144 28.5536C81.1149 25.3255 81.4247 22.681 80.7255 20.7447C80.6232 20.4614 80.6761 20.1599 80.8405 19.9332C81.5518 21.0197 82.2162 22.1396 82.8311 23.29C82.7743 25.1261 82.2346 27.1416 81.3199 29.2501C79.8374 32.6671 77.3126 36.4644 73.964 40.3979C67.4942 47.9977 57.8604 56.2092 46.4038 63.2947C50.5239 65.6573 55.5701 67.3905 61.9043 68.8772C67.5792 64.6792 71.9416 60.3204 75.865 56.3969C78.34 53.657 80.5959 50.9388 82.7954 47.9804C84.8656 45.1457 85.9865 42.923 86.9028 40.2645C86.7537 35.8174 86.1336 31.8387 85.1142 28.2946C86.7988 32.7019 87.7951 37.4494 87.9716 42.4058C87.1479 44.445 86.113 46.3399 84.5464 48.5438C85.6809 50.548 86.281 53.0128 86.3671 55.9168C85.77 58.0442 85.0169 60.1063 84.121 62.0901C85.016 56.8736 84.6995 52.9257 83.3843 50.1073C81.4886 52.5922 79.5397 54.9245 77.4424 57.2605C78.6567 63.6423 78.1104 70.1268 74.7594 75.462C72.8999 77.2802 70.8798 78.935 68.7225 80.4029C68.533 80.0384 68.6218 79.5792 68.9557 79.3144C75.3966 74.2061 77.1301 66.6387 75.9321 58.8034C72.3129 62.4094 68.2062 66.3835 63.0161 70.2315C63.5248 75.9471 62.6986 79.6255 59.6327 82.6614C58.1163 84.163 56.0903 85.4689 53.5257 86.8054C53.0972 87.0287 52.5687 86.8623 52.3454 86.4338C52.1221 86.0052 52.2885 85.4768 52.717 85.2534C54.4104 84.371 55.8032 83.5318 56.94 82.6726C44.3223 80.853 33.4162 73.3207 25.5116 63.9873C17.5294 54.5622 12.512 43.1878 11.9028 33.7623C10.0025 34.4612 8.29946 35.7159 6.66882 37.7428C4.55111 62.2882 24.1576 86.1377 49.0171 86.6252C49.5002 86.6346 49.8842 87.034 49.8747 87.5172C49.8741 87.5493 49.8718 87.581 49.8678 87.6121C48.0062 87.8602 46.1078 87.9919 44.1801 87.9996C21.46 84.8806 4.21019 63.19 4.77592 40.2898C3.49444 42.3888 2.55095 44.9016 1.8483 47.7122C1.7311 48.181 1.25603 48.4661 0.787208 48.3489C0.4706 48.2697 0.237809 48.0274 0.15612 47.7339C0.146883 47.624 0.13805 47.514 0.129623 47.4038C0.133939 47.3652 0.140874 47.3265 0.150552 47.2878C1.16558 43.2277 2.70712 39.5834 5.14919 36.8423C7.31141 34.0876 9.6893 32.4676 12.5074 31.7442C16.6031 30.6929 21.4968 31.5803 27.719 33.201C33.4094 28.4031 37.8166 24.4727 41.6078 20.387C35.5933 18.6566 28.6393 17.6537 22.262 18.1663C15.3993 18.718 9.34857 21.0083 5.74952 25.8606C5.46163 26.2487 4.9136 26.33 4.52547 26.0421C4.27398 25.8556 4.15132 25.5598 4.17444 25.2691C4.27321 25.0595 4.3736 24.8507 4.47558 24.6429ZM44.2497 64.0393C48.7719 66.9032 54.3292 68.8828 61.2855 70.5293C61.7278 75.7006 60.978 78.6913 58.685 81.1271C45.9777 79.7878 34.8772 72.338 26.847 62.8563C18.9315 53.51 14.098 42.3055 13.6279 33.2854C17.1004 32.6136 21.3801 33.362 27.2095 34.8767C29.2093 43.0207 31.4956 49.2835 34.5469 54.1852C37.1446 58.3581 40.2876 61.5302 44.2497 64.0393Z" fill="black"/>
</g>
<defs>
<clipPath id="clip0_2_113">
<rect width="88" height="88" fill="white"/>
</clipPath>
</defs>
</svg>
